Coordinates
version=1
nRows=12
nColumns=24
inDegrees=yes

Units are S.I. units (second, meters, Newtons, ...)
Angles are in degrees.

endheader
time	pelvis_tilt	pelvis_list	pelvis_rotation	pelvis_tx	pelvis_ty	pelvis_tz	hip_flexion_r	hip_adduction_r	hip_rotation_r	knee_angle_r	ankle_angle_r	subtalar_angle_r	mtp_angle_r	hip_flexion_l	hip_adduction_l	hip_rotation_l	knee_angle_l	ankle_angle_l	subtalar_angle_l	mtp_angle_l	lumbar_extension	lumbar_bending	lumbar_rotation
      1.15433333	      5.02171999	      5.39672474	     -4.02493724	      0.16876924	      0.91614449	      0.31467040	     11.24671714	     -9.71991908	     -7.21995126	    -77.06912691	     -2.22778836	      2.70305794	      5.59085768	      3.39883165	      9.52126407	     -2.95510671	    -17.62802182	     11.17857402	     -7.27901647	      4.97633835	    -14.43618915	     -8.72430859	      0.89759424
      1.15850000	      4.97694284	      5.18376366	     -3.89423052	      0.17372972	      0.91712278	      0.31430013	     11.97408219	     -9.38603451	     -7.30633182	    -77.08438022	     -1.98673118	      2.54001682	      5.38997584	      2.80270416	      9.36743748	     -2.59669783	    -17.08007232	     11.11739068	     -7.52874281	      4.94765879	    -14.45444567	     -8.41921526	      0.61205558
      1.16266667	      4.91413670	      4.96346650	     -3.79853428	      0.17871972	      0.91803433	      0.31403613	     12.71380980	     -9.01627268	     -7.33791290	    -77.03662536	     -1.68508779	      2.47557498	      5.36430244	      2.25136067	      9.16814698	     -2.44874134	    -16.58546338	     11.15167595	     -7.43003375	      4.94455203	    -14.41333614	     -8.16959110	      0.55990707
      1.16683333	      4.86170739	      4.70526351	     -3.65877514	      0.18367007	      0.91896882	      0.31370233	     13.40351584	     -8.60683412	     -7.42066418	    -76.89533849	     -1.38973898	      2.40967919	      5.30303170	      1.69927112	      8.93286210	     -2.22486260	    -16.11435453	     11.13999540	     -7.45007809	      4.93363505	    -14.43211985	     -7.81711888	      0.43074683
      1.17100000	      4.82972269	      4.47361920	     -3.51632534	      0.18866055	      0.91991122	      0.31335776	     14.05171668	     -8.23730772	     -7.50911843	    -76.68558503	     -1.14882961	      2.38072158	      5.16914452	      1.08498259	      8.73779402	     -1.91288634	    -15.55414169	     11.12515868	     -7.57101408	      4.90839127	    -14.44528041	     -7.52808713	      0.19464572
      1.17516667	      4.75109599	      4.25021012	     -3.40093162	      0.19364470	      0.92072213	      0.31306836	     14.75331953	     -7.86094235	     -7.55911578	    -76.43413052	     -0.84957766	      2.37084515	      5.14548097	      0.55789021	      8.52495981	     -1.77559144	    -15.05855487	     11.12611267	     -7.48155882	      4.90342309	    -14.37316958	     -7.25309707	      0.12959627
      1.17933333	      4.73046193	      4.00319807	     -3.23841594	      0.19858410	      0.92162952	      0.31270436	     15.34862512	     -7.47120329	     -7.66049347	    -76.08604211	     -0.56578719	      2.39525043	      4.97351711	     -0.05775707	      8.30559302	     -1.45516548	    -14.50479170	     11.04636804	     -7.64307241	      4.86384775	    -14.43012262	     -6.91813729	     -0.14081558
      1.18350000	      4.66120914	      3.74812625	     -3.08842187	      0.20351554	      0.92241094	      0.31238688	     15.99165155	     -7.06035702	     -7.74316819	    -75.68631847	     -0.28129046	      2.44725030	      4.93586793	     -0.57693535	      8.05142680	     -1.28548435	    -14.04061341	     11.05431118	     -7.57706009	      4.85461382	    -14.40384287	     -6.58709798	     -0.21438306
      1.18766667	      4.61734255	      3.49564276	     -2.93325327	      0.20844964	      0.92320416	      0.31207170	     16.58130844	     -6.65756533	     -7.83486534	    -75.21048035	      0.00003514	      2.50701105	      4.89451230	     -1.13395642	      7.80021425	     -1.09090141	    -13.54956556	     11.04568021	     -7.54828971	      4.84371292	    -14.41186168	     -6.25961720	     -0.34980405
      1.19183333	      4.59264026	      3.24360294	     -2.76745394	      0.21336981	      0.92398974	      0.31174075	     17.12929614	     -6.26286045	     -7.93988517	    -74.67081786	      0.27704226	      2.58550320	      4.84252632	     -1.71683516	      7.55035585	     -0.86848625	    -13.03984617	     11.02697445	     -7.55787150	      4.82965894	    -14.44145762	     -5.93209276	     -0.53333447
      1.19600000	      4.58552652	      3.01680671	     -2.60604102	      0.21830103	      0.92474513	      0.31140970	     17.64431177	     -5.90617038	     -8.04313537	    -74.08051741	      0.54774362	      2.66626840	      4.74982911	     -2.33630297	      7.33021599	     -0.61363764	    -12.48655064	     10.99573160	     -7.62686208	      4.80520924	    -14.47887298	     -5.64282414	     -0.77376783
      1.20016667	      4.55306147	      2.77716608	     -2.44448179	      0.22319049	      0.92542032	      0.31110019	     18.17444976	     -5.52788639	     -8.14073565	    -73.42990619	      0.82653399	      2.76031638	      4.68033401	     -2.89708139	      7.08387669	     -0.42117431	    -11.98948765	     10.97912344	     -7.62154344	      4.78711776	    -14.49448871	     -5.32506804	     -0.92585519
